/* XPM */
static char *house[] = {
/* columns rows colors chars-per-pixel */
"32 32 183 2 ",
"   c #371C26",
".  c #3B232C",
"X  c #273B2E",
"o  c #303A20",
"O  c #2E2434",
"+  c #372536",
"@  c #3B2A33",
"#  c #31273D",
"$  c #411E1F",
"%  c #44211C",
"&  c #51221F",
"*  c #452123",
"=  c #4B2323",
"-  c #45262D",
";  c #47282D",
":  c #4C282F",
">  c #532523",
",  c #572625",
"<  c #552924",
"1  c #5B2B24",
"2  c #562C2C",
"3  c #5E2B2A",
"4  c #4C3A2B",
"5  c #5E3124",
"6  c #503A2F",
"7  c #532E30",
"8  c #4C3D31",
"9  c #44333A",
"0  c #523635",
"q  c #57363E",
"w  c #593E3D",
"e  c #612D26",
"r  c #622D2B",
"t  c #6C2F2B",
"y  c #683626",
"u  c #63312B",
"i  c #6B332C",
"p  c #72342E",
"a  c #76392C",
"s  c #693633",
"d  c #6E3633",
"f  c #743432",
"g  c #773A32",
"h  c #7B3C34",
"j  c #2B4423",
"k  c #2D4A29",
"l  c #364529",
"z  c #2E523C",
"x  c #37583B",
"c  c #376A36",
"v  c #39713D",
"b  c #404029",
"n  c #464F34",
"m  c #5B4534",
"M  c #554439",
"N  c #5A403F",
"B  c #7F423A",
"V  c #1F2F4C",
"C  c #2D2B42",
"Z  c #282E4A",
"A  c #352C42",
"S  c #2C324C",
"D  c #33344C",
"F  c #2E3D5A",
"G  c #363953",
"H  c #313A55",
"J  c #323B5A",
"K  c #383F5C",
"L  c #423951",
"P  c #375346",
"I  c #3B5644",
"U  c #36574B",
"Y  c #34514C",
"T  c #3A5B4B",
"R  c #2F405C",
"E  c #374A55",
"W  c #33425D",
"Q  c #39435E",
"!  c #394859",
"~  c #395656",
"^  c #386146",
"/  c #366842",
"(  c #3B7542",
")  c #3F6058",
"_  c #344360",
"`  c #3A4562",
"'  c #364963",
"]  c #3B4B63",
"[  c #3C4D68",
"{  c #3E5563",
"}  c #5B4140",
"|  c #404156",
" . c #435A5F",
".. c #426F4C",
"X. c #406350",
"o. c #41675B",
"O. c #43695C",
"+. c #486B5B",
"@. c #404D6B",
"#. c #425470",
"$. c #445A74",
"%. c #476663",
"&. c #476E61",
"*. c #477063",
"=. c #4A7164",
"-. c #9C4F2C",
";. c #854634",
":. c #8E4536",
">. c #8A4C35",
",. c #8F4739",
"<. c #8D4B39",
"1. c #974E36",
"2. c #984D34",
"3. c #93493A",
"4. c #8A503B",
"5. c #945636",
"6. c #9B5636",
"7. c #945439",
"8. c #96583A",
"9. c #9C5C3A",
"0. c #A55A33",
"q. c #A65A3A",
"w. c #AB5C3B",
"e. c #A5603F",
"r. c #AD623B",
"t. c #B2623A",
"y. c #B9673E",
"u. c #B3683A",
"i. c #BC6C3D",
"p. c #C26F3F",
"a. c #C4733F",
"s. c #964D42",
"d. c #845A42",
"f. c #895A46",
"g. c #955E4C",
"h. c #AE5847",
"j. c #A4594D",
"k. c #AB584A",
"l. c #8E6249",
"z. c #96634B",
"x. c #9B664D",
"c. c #996C4D",
"v. c #9B6852",
"b. c #AC6644",
"n. c #B36741",
"m. c #B56A44",
"M. c #BB6D42",
"N. c #B76A4B",
"B. c #B96D4B",
"V. c #B97043",
"C. c #BE714A",
"Z. c #A26856",
"A. c #A36C56",
"S. c #C47243",
"D. c #CA7642",
"F. c #CC7943",
"G. c #C3744E",
"H. c #C7794C",
"J. c #CD7D4B",
"K. c #D07C4E",
"L. c #C77750",
"P. c #488743",
"I. c #468846",
"U. c #468648",
"Y. c #459047",
"T. c #479349",
"R. c #489449",
"E. c #489848",
"W. c #4A8153",
"Q. c #CF814E",
"!. c #D3824C",
"~. c #D08450",
"^. c #DA8E5B",
"/. c #DE945D",
"(. c #E0955E",
"). c #DC9461",
"_. c #DC9B6B",
"`. c #D69F72",
"'. c #E19E6E",
"]. c #DDA47B",
"[. c #DFA87E",
"{. c #ECA16A",
"}. c #E7AB80",
/* pixels */
"E.E.E.E.E.E.E.E.E.E.E.E.E.E.E.E.E.E.E.E.E.E.E.E.E.E.E.E.E.E.E.E.",
"E.E.E.E.E.E.E.E.E.E.E.E.E.E.E.E.E.E.E.E.E.E.E.E.E.E.E.E.E.E.E.E.",
"E.E.E.E.E.E.E.E.E.E.E.E.E.E.E.E.E.E.E.E.E.E.c m 4 m 6 P.E.E.E.E.",
"E.E.E.E.E.E.E.E.E.E.E.E.E.E.E.E.E.E.E.E.E.E.c j.3.h.s.U.E.E.E.E.",
"E.E.E.E.E.E.E.E.E.E.E.E.E.E.R.W.E ..R.E.E.E.E.b B B n E.E.E.E.E.",
"E.E.E.E.E.E.E.E.E.E.E.E.R.U. .] ` ` ` I.R.E.E.o s.k.l E.E.E.E.E.",
"E.E.E.E.E.E.E.E.R.E.I.U Y @.S # * + S [ ~ ( R.l 1.h.l E.E.E.E.E.",
"E.E.E.E.E.E.E.E.R.+.! ` Q # 2 ;.6.;.7 O G ] #.| q j.l E.E.E.E.E.",
"E.E.E.E.E.R.T U { H D . - p <.2.D.b.6.a 1 + H J ' L x R.E.E.E.E.",
"E.E.E.T...E [ # C ; u 1.6.S.D.V.D.S.D.D.r.>.= : A _ ] ~ R.R.E.E.",
"R.Y.^ { ` G + s p :.2.w.w.S.0.i.a.D.w.h.w.w.>.:.p ; A K ] T ^ E.",
"x E @.Z O   r 8.9.6.5.7.7.9.5.9.q.9.7.7.1.7.8.8.9.p 2   A W ' P ",
"v / X 4.>.>.>.>.>.>.>.>.>.>.>.>.>.>.>.>.>.>.>.>.>.>.>.>.>.M ( v ",
"E.E.j <.>.>.:.>.>.>.>.:.>.>.>.:.>.>.>.>.:.>.>.>.>.<.>.<.<.m E.E.",
"E.E.k r % 3 3 3 3 3 3 3 3 3 3 3 3 3 3 3 3 3 3 3 3 3 3 * 3 8 E.E.",
"E.E.j N.1 <.<.:.6.y.2.2.:.<.:.,.:.:.:.<.<.:.3.:.:.:.3.: N.m E.E.",
"E.E.j B.= H.!./.).)././.S.~.)./.)./.^.S.K.(.(./.).^.a.y L.m E.E.",
"E.R.j B.> q.{.l.v.f.z.].2._.f.z.d.g.`.t.'.z.x.f.g.}.-.< G.m E.E.",
"E.E.j B.= S.!.y f 3 f b.p.Q.e i 3 p q.S.!.y p r t C.D.3 G.m E.E.",
"E.E.j B.> 9.S.& d * d r.0.V.* u % u 9.q.S., t * t m.0.< G.m E.E.",
"E.E.j B.= M.F.a B i g n.i.F.i g i g q.p.F.a h d g M.S.1 G.m E.E.",
"E.E.j B.> k.S.< d * i r.D.S.% u $ r 5.r.p.1 u = t n.w.1 G.m E.E.",
"E.E.j B.> n.K.u f r d n.a.J.e f 3 t e.i.J.y f r t C.i.1 G.m E.E.",
"E.E.j B.= b._.c.A.l.A.[.6.{.l.c.l.Z.].0.'.c.Z.z.v.}.u.5 G.m E.E.",
"E.E.j B.> b.H.(./.(.(./.w.J.(./.(.(.(.t.H./.(./.(.^.i.5 G.m E.E.",
"E.E.j B.& u.y.t.t.t.t.t.y.t.t.r.t.r.t.u.u.t.t.r.w.t.p.1 G.m E.E.",
"E.E.j N.& q.q.q.q.e.e.e.w.q.q.q.q.q.q.q.q.q.q.q.q.0.t.& B.m E.E.",
"R.E.x 0 @ w w 0 } 8 M } N N N N N N N w q w N N w w 0 9 q 9 I T ",
"P S W H H W Q Z ' V W ' R W R ' R R R $.$.W W _ [ #.' ' F J _ E ",
"z %.O.E O.o.Y o.) *.) ) ) ) ) ) o.) ) *.=.O.) O.*.&.=.O.O.P O.X.",
"E.E.E.E.E.E.E.E.E.E.E.E.E.E.E.E.E.E.E.E.E.E.E.E.E.E.E.E.E.E.E.E.",
"E.E.E.E.E.E.E.E.E.E.E.E.E.E.E.E.E.E.E.E.E.E.E.E.E.E.E.E.E.E.E.E."
};
