/* XPM */
static char *tree[] = {
/* columns rows colors chars-per-pixel */
"32 32 123 2 ",
"   c #2E380C",
".  c #343507",
"X  c #39340E",
"o  c #353A0E",
"O  c #3D3B11",
"+  c #4F2500",
"@  c #4C2609",
"#  c #402E0D",
"$  c #532D0F",
"%  c #4A310D",
"&  c #5D330C",
"*  c #553713",
"=  c #5A3314",
"-  c #5C3B16",
";  c #58361A",
":  c #513F1A",
">  c #5E3C19",
",  c #613514",
"<  c #653B14",
"1  c #693F16",
"2  c #623D19",
"3  c #23440E",
"4  c #234908",
"5  c #294F0D",
"6  c #244511",
"7  c #274811",
"8  c #2B4D14",
"9  c #2D4E18",
"0  c #304913",
"q  c #334E1A",
"w  c #2D5215",
"e  c #2F5218",
"r  c #315416",
"t  c #32541A",
"y  c #345A1B",
"u  c #385C1D",
"i  c #3B631D",
"p  c #355823",
"a  c #385B22",
"s  c #376327",
"d  c #3E6222",
"f  c #3B652C",
"g  c #3C6B29",
"h  c #524719",
"j  c #6B4017",
"k  c #64411A",
"l  c #6C441C",
"z  c #72491E",
"x  c #5F5127",
"c  c #5A542D",
"v  c #634224",
"b  c #6B4422",
"n  c #6C4A24",
"m  c #754C23",
"M  c #784E25",
"N  c #7A5026",
"B  c #74542A",
"V  c #7D532A",
"C  c #625D36",
"Z  c #426625",
"A  c #446B26",
"S  c #456C2A",
"D  c #496E2A",
"F  c #497324",
"G  c #47722A",
"H  c #4C732C",
"J  c #4F7C28",
"K  c #50772D",
"L  c #527A2E",
"P  c #466F36",
"I  c #496836",
"U  c #437A35",
"Y  c #49733C",
"T  c #447C3D",
"R  c #517630",
"E  c #557C32",
"W  c #587E35",
"Q  c #53753D",
"!  c #557A3B",
"~  c #646039",
"^  c #705A40",
"/  c #587A42",
"(  c #80572D",
")  c #82592F",
"_  c #845B32",
"`  c #58822F",
"'  c #45833C",
"]  c #4C863F",
"[  c #448A3B",
"{  c #5A8335",
"}  c #5D8835",
"|  c #5D8539",
" . c #5E8838",
".. c #4A903E",
"X. c #638D3B",
"o. c #67923D",
"O. c #69943E",
"+. c #6C983F",
"@. c #4A8342",
"#. c #4A8E45",
"$. c #4E8F4A",
"%. c #548647",
"&. c #558846",
"*. c #508548",
"=. c #55884D",
"-. c #489747",
";. c #4B9649",
":. c #489848",
">. c #54914C",
",. c #5C8A51",
"<. c #589554",
"1. c #539951",
"2. c #649241",
"3. c #6B9641",
"4. c #6D9942",
"5. c #719D45",
"6. c #749F48",
"7. c #658852",
"8. c #74A147",
"9. c #76A24A",
"0. c #79A54C",
"q. c #7DAA4F",
"w. c #80AC52",
/* pixels */
":.:.:.:.:.:.:.:.-.-.-.-.Q Q ! Q I U -.-.:.:.:.:.:.:.:.:.:.:.:.:.",
":.:.:.:.:.:.:.:.-.$.g { 8.0.0.8.5.` G -.:.:.P R } L &.-.:.:.:.:.",
":.:.:.:.:.:.:.-.' J 9.5.+.O.O.O.8.q.4.d q u o.0.9.8.8.o.] -.:.:.",
":.:.:.:.:.:.:.[ F q.4.o.O.O.4.4.O.4.9. .y o.0.3.o.o.O.8.o.G #.:.",
":.:.:.:.:.:.:...{ 8.o.o.o.8.0.5.5.4.O.X.d  .8.5.8.8.4.o.+.X.i :.",
":.:.:.:.:.:.:.' F 5.5.o.O.6.O.o.4.4.4.W t W 4.O.3.4.9.5.+.} G :.",
":.:.:.:.;.;.@.q t H o.O.o.3.3.o. . .E y 8 | 4.O.3.3.3.4.4.} y :.",
":.:.#.S L 4.4.H d y { o.3.3.{ d r y y 8 w Z H | 4.9.8.4.o.J w :.",
":.;.o.5.5.3.6.6.K q t Z R u 9 D 3.6.9.9.9.W t p | 4.8.4.} d p :.",
"! +.6.3.o.3.| i Z 3.Z 6 0 D 3.6.5.5.5.4.5.w.9.e A o.4. .i s :.:.",
"S 0.5.o.3.o.K D 0.+.a 8 X.5.4.o.o.o.o.o.3.9.q.{ y H R u T :.:.:.",
"D O.3.o.O.o.L K 5.X.u L 5.4.o.o.3.3.o.o.3.3.4.9.A q 3 T -.:.:.:.",
"y } 3.o.3.3.K t E H y X.O.o.3.6.0.9.6.3.o.o.4.o.e y | 4.} A I -.",
"t G o.3.4.X.Z 3 t t 3 K O.O.5.6.3.o.o.3.3.o.3.X.t d o.5.0.q.} a ",
"1.t F 3.o.a r X.6.5.| u W o.5.4.o.o.o.3.3.o.3.X.t Z X.+.O.8.5.d ",
";.;.f r w 7 K 0.+.3.6.O.D D o.+.5.6.3.o.o.o.3.X.e d X.4.o.O.o.H ",
":.:.:.:.:.=.i 4.3.2.3.{ t d X.3.5.6.o.o.3.3. .d 9 A X.3.3.4.o.S ",
":.:.:.:.:.*.4 L X.3.| d 6 9 H X.6.8.4.O.X.W d 7 d  .3.5.0.5.R y ",
":.:.:.:.:.:.=.7 5 i t q O   9 S X.o.| H A y 6 8 R 3.4.5.3.G e #.",
":.:.:.:.:.:.:.:.>.<.X B V - o 0 t q q q 0 o # o y H | { d y @.:.",
":.:.:.:.:.:.:.:.:.:.7.n ( V 1 > 2 2 k k - $ 2 - . 3 8 8 Y :.:.:.",
":.:.:.:.:.:.:.:.:.:.;.* M ( ) V z m N _ b = j , g -.-.:.:.:.:.:.",
":.:.:.:.:.:.:.:.:.:.-.:.: $ n ( M m M _ 2 @ ; ] :.:.:.:.:.:.:.:.",
":.:.:.:.:.:.:.:.:.:.:.:.;.c 1 z M m V V > ,.;.:.:.:.:.:.:.:.:.:.",
":.:.:.:.:.:.:.:.:.:.:.:.:.C b z V V m z - :.:.:.:.:.:.:.:.:.:.:.",
":.:.:.:.:.:.:.:.:.:.:.:.:.C n m V V m m * -.:.:.:.:.:.:.:.:.:.:.",
":.:.:.:.:.:.:.:.:.:.:.:.:.~ l m V _ V m k :.:.:.:.:.:.:.:.:.:.:.",
":.:.:.:.:.:.:.:.:.:.:.:.;.x < m B V _ N V &.-.:.:.:.:.:.:.:.:.:.",
":.:.:.:.:.:.:.:.:.:.:.:./ n < j m M N V M ( v >.:.:.:.:.:.:.:.:.",
":.:.:.:.:.:.:.:.:.-.:.^ 2 m m m M M m m m N M 7.:.:.:.:.:.:.:.:.",
"-.:.:.:.:.:.:.:.:.:.;.h z N M M l < l M M M M > =.:.:.:.:.:.:.:.",
":.:.:.:.:.:.:.:.-.;.% & 1 1 j < & - j j 1 1 j + %.:.:.:.:.:.:.:."
};
