/* XPM */
static char *yarn[] = {
/* columns rows colors chars-per-pixel */
"32 32 140 2 ",
"   c #0E1A1F",
".  c #23171B",
"X  c #262926",
"o  c #362E32",
"O  c #342F35",
"+  c #3C423C",
"@  c #093D42",
"#  c #0C3D42",
"$  c #0D3B47",
"%  c #093F44",
"&  c #0D3B4B",
"*  c #064245",
"=  c #15574F",
"-  c #0F5052",
";  c #0D5553",
":  c #0E5655",
">  c #0F595B",
",  c #204D42",
"<  c #265447",
"1  c #2A5242",
"2  c #245748",
"3  c #12625B",
"4  c #2B644D",
"5  c #366C4A",
"6  c #3A6C4C",
"7  c #3F7047",
"8  c #37724E",
"9  c #3D734D",
"0  c #3D784E",
"q  c #2E6250",
"w  c #2F6757",
"e  c #2D6F51",
"r  c #216558",
"t  c #3C7950",
"y  c #3E7A55",
"u  c #0E5461",
"i  c #145764",
"p  c #135963",
"a  c #185B60",
"s  c #155C68",
"d  c #146763",
"f  c #146863",
"g  c #1D7563",
"h  c #1B7264",
"j  c #16736C",
"k  c #18776C",
"l  c #1E7674",
"z  c #1D777D",
"x  c #476340",
"c  c #496248",
"v  c #41754A",
"b  c #437A4B",
"n  c #4E7A4E",
"m  c #50784B",
"M  c #228169",
"N  c #26836B",
"B  c #25866E",
"V  c #2A8C6A",
"C  c #228171",
"Z  c #228276",
"A  c #258873",
"S  c #23877B",
"D  c #21807D",
"F  c #22837C",
"G  c #4E8D4B",
"H  c #4D934C",
"J  c #4D934D",
"K  c #4E944D",
"L  c #4C974D",
"P  c #489848",
"I  c #499848",
"U  c #499849",
"Y  c #4A994A",
"T  c #4B984B",
"R  c #4B994B",
"E  c #4C984C",
"W  c #50924F",
"Q  c #518450",
"!  c #0F6988",
"~  c #0D6B8E",
"^  c #106D8B",
"/  c #1E7B85",
"(  c #177789",
")  c #1C7789",
"_  c #1C788B",
"`  c #1D7C8B",
"'  c #1D798C",
"]  c #1D7A8C",
"[  c #1E7D90",
"{  c #1E7E94",
"}  c #1D7F99",
"|  c #1E7F98",
" . c #1A799F",
".. c #207E89",
"X. c #207F96",
"o. c #1B8182",
"O. c #1C8384",
"+. c #1E8787",
"@. c #1F8193",
"#. c #1E8096",
"$. c #1E8997",
"%. c #1E839A",
"&. c #1F839D",
"*. c #1C8C9D",
"=. c #208183",
"-. c #218187",
";. c #218489",
":. c #20828C",
">. c #228193",
",. c #218791",
"<. c #218197",
"1. c #218198",
"2. c #20829C",
"3. c #22849F",
"4. c #20899F",
"5. c #238D9E",
"6. c #1F82A1",
"7. c #1F84A5",
"8. c #1D86A8",
"9. c #1E8AAF",
"0. c #1786B1",
"q. c #1E86B3",
"w. c #2382A0",
"e. c #2285A0",
"r. c #2085A7",
"t. c #2189A2",
"y. c #2388A6",
"u. c #238DA7",
"i. c #2286A9",
"p. c #2389AB",
"a. c #238AAC",
"s. c #248DAE",
"d. c #2289B2",
"f. c #238DB3",
"g. c #268DB3",
"h. c #238CB6",
"j. c #248DB7",
"k. c #268EBA",
"l. c #278FBB",
"z. c #2394BD",
/* pixels */
"P P P P P P P P P P P P P P P P P P P P P P P P P P P P P P P P ",
"P P P P P P P P P P P P P P P P P P P P P P P P P P P P P P P P ",
"P P P P P P P P P P P P P P P P P P P P P P P P P P P P P P P P ",
"P P P P P P P P P P P P P P P P P P P P P P P P P P P P P P P P ",
"P P P P P P P P P P P P P P P P P P P P P P P P P P P P P P P P ",
"P P P P P P P P P P P P P P P P P P P P P P P P P P P P P P P P ",
"P P P P P P P P P P P P P P P P P P P P P P P P P P P P P P P P ",
"P P P P P P P P P P P P P P P P P P P P P P P P P P P P P P P P ",
"P P P P P P P P P P P P P P P P P P P P P P P P P P P P P P P P ",
"P P P P P P P P P P P P P P P P P P P P P P P P P P P P P P P P ",
"P P P P P P P P P P P P P P Q @ # @ < J P P P P P P P P P P P P ",
"P P P P P P P P P P P P v = 3 A B $.( p < H P P P P P P P P P P ",
"P P P P P P P P P P P e d C D =.Z &.%.8.~ u L T P P P P P P P P ",
"P P P P P P P P P P 2 k A :.` 6.1.&.] <.w.0.i J P P P P P P P P ",
"P P P P P P P P P J 3 o.D 3.[ 2.{ &.@.%.{ { ! 4 P P P P P P P P ",
"P P P P P P P P P , M ;.{ { ` | [ { %.[ l ..z.s T P P P P P P P ",
"P P P P P P P P L > l ..] ] ] ] ] ) z { 2.8.i.q.w T P P P P P P ",
"P P P P P P P P b f A <.| 2.{ w.l.a.[ t.a.@.a.9.$ P P P P P P P ",
"P P P P P P P P v d ,.` ..X.y.1.[ i.a.{ r.f.3.9.& P P P P P P P ",
"P P P P P P P P L - o.w.e.w.e.7.7.{ e.k.i.<.s. .y P P P P P P P ",
"P P P P P P P P I 1 h ,.h.&.2.3.e.y.i.{ i.g.f.a P P P P P P P P ",
"P P P P P P P P I L : Z -.g.e.%.a.7.6.k.i.t.^ 6 P P P P P P P P ",
"P P P P P P P P P P 0 h +.>.a.k.&.&.d.%.6.*.r P P P P P P P P P ",
"P P P P P P P P P P P b : M O.=.u.5.S V B = X W P P P P P P P P ",
"P P P P P P L P P P P G J 4 ; k k j g *   . o O + c T P P P P P ",
"P P P P P P P E H H J P P P L 8 5 0 9 x m Q n W P P P P P P P P ",
"P P P P P P P P P P P P P P P P T T P P P P P P P P P P P P P P ",
"P P P P P P P P P P P P P P P P P P P P P P P P P P P P P P P P ",
"P P P P P P P P P P P P P P P P P P P P P P P P P P P P P P P P ",
"P P P P P P P P P P P P P P P P P P P P P P P P P P P P P P P P ",
"P P P P P P P P P P P P P P P P P P P P P P P P P P P P P P P P ",
"P P P P P P P P P P P P P P P P P P P P P P P P P P P P P P P P "
};
