/* XPM */
static char *down[] = {
/* columns rows colors chars-per-pixel */
"32 32 136 2 ",
"   c black",
".  c #091409",
"X  c #141A13",
"o  c #1B1A1A",
"O  c #122712",
"+  c #182319",
"@  c #21281E",
"#  c #273225",
"$  c #2B312B",
"%  c #343432",
"&  c #343D33",
"*  c #3B3A37",
"=  c #731E05",
"-  c #592615",
";  c #413B3A",
":  c #68302C",
">  c #723636",
",  c #264325",
"<  c #2C4A2B",
"1  c #2B542A",
"2  c #2B5B2B",
"3  c #30542F",
"4  c #314E30",
"5  c #38463C",
"6  c #3E4E3F",
"7  c #2F5331",
"8  c #2D5E3A",
"9  c #325231",
"0  c #335D32",
"q  c #375639",
"w  c #3B593A",
"e  c #346334",
"r  c #356E35",
"t  c #32613E",
"y  c #3A673A",
"u  c #3C6B3C",
"i  c #3C733D",
"p  c #3A7A3A",
"a  c #754027",
"s  c #6C4F3E",
"d  c #001251",
"f  c #001A58",
"g  c #3F4441",
"h  c #3C7742",
"j  c #4C4B4B",
"k  c #4D574F",
"l  c #54514D",
"z  c #565354",
"x  c #5A5657",
"c  c #565B5B",
"v  c #5A5C5C",
"b  c #407040",
"n  c #417C41",
"m  c #605F60",
"M  c #5B6261",
"N  c #626464",
"B  c #6C6661",
"V  c #61676C",
"C  c #666B6B",
"Z  c #6A6B6D",
"A  c #716F70",
"S  c #6C7372",
"D  c #6D7C7D",
"F  c #747677",
"G  c #787874",
"H  c #727778",
"J  c #747B7B",
"K  c #787E7F",
"L  c #962B0D",
"P  c #893821",
"I  c #8C322C",
"U  c #9B3839",
"Y  c #CA2911",
"T  c #DC2F1E",
"R  c #D4797A",
"E  c #458D45",
"W  c #479347",
"Q  c #489648",
"!  c #489848",
"~  c #7E827C",
"^  c #6A7D9E",
"/  c #4C79A9",
"(  c #7D8383",
")  c #7E8AA2",
"_  c #5A8FC1",
"`  c #828789",
"'  c #898D8E",
"]  c #818A92",
"[  c #8F9597",
"{  c #919699",
"}  c #929A9B",
"|  c #9F9F9B",
" . c #9BA3A4",
".. c #9BA5B6",
"X. c #A0A7AA",
"o. c #A1ABAD",
"O. c #AEB2AC",
"+. c #A6AEB1",
"@. c #A9AFB3",
"#. c #A9B2B5",
"$. c #ADB6B9",
"%. c #AEB8BA",
"&. c #B0B6BA",
"*. c #B1B9BE",
"=. c #CB9396",
"-. c #8BA8C8",
";. c #A2BAC0",
":. c #B2BDC0",
">. c #A9C4CA",
",. c #A9C9CF",
"<. c #B9C2C5",
"1. c #BAC5C9",
"2. c #BDC9CD",
"3. c #BCD4DB",
"4. c #B8CDE2",
"5. c #BEECFF",
"6. c #C1C9CD",
"7. c #C2CBD1",
"8. c #C9D2D2",
"9. c #C4D1DB",
"0. c #CBD5DB",
"q. c #CFDADE",
"w. c #D2D7D6",
"e. c #D2DCE1",
"r. c #D8DCE0",
"t. c #D3E2E7",
"y. c #DBE6EA",
"u. c #DEECF2",
"i. c #D2F4FF",
"p. c #E1EAEE",
"a. c #E2EFF4",
"s. c #E6F1F5",
"d. c #E7F3F9",
"f. c #ECF8FB",
"g. c #F4FEFF",
"h. c #FDFEFF",
/* pixels */
"! ! ! ! ! ! ! ! ! ! ! ! ! ! ! ! ! ! ! ! ! ! ! ! ! ! ! ! ! ! ! ! ",
"! ! ! ! ! ! ! ! ! ! ! ! ! ! ! ! ! W W ! ! ! ! ! ! ! ! ! ! ! ! ! ",
"! ! ! ! ! ! ! ! ! ! ! ! ! ! ! ! ! 0 ; b Q ! ! ! ! ! ! ! ! ! ! ! ",
"! ! ! ! ! ! ! ! ! ! ! ! ! ! ! W 9 B %.m i ! ! ! ! ! ! ! ! ! ! ! ",
"! ! ! ! ! ! ! ! ! ! ! ! ! ! ! 3 v e.&.g i ! ! ! ! ! ! ! ! ! ! ! ",
"! ! ! ! ! ! ! ! ! ! ! ! ! ! W < #.e.k i ! ! ! ! ! ! ! ! ! ! ! ! ",
"! ! ! ! ! ! ! ! ! ! ! ! ! ! 3 x t.K r Q ! ! ! ! ! ! ! ! ! ! ! ! ",
"! ! ! ! ! ! ! ! ! ! ! ! ! ! 1 ^ 7.M i Q ! ! ! ! ! ! ! ! ! ! ! ! ",
"! ! ! ! ! ! ! ! ! ! ! ! ! W < H 1.c e W ! ! ! ! ! ! ! ! ! ! ! ! ",
"! ! ! ! ! ! ! ! ! ! ! ! E q % C { v % u W ! ! ! ! ! ! ! ! ! ! ! ",
"! ! ! ! ! ! ! ! ! ! ! W 4 C :.:.*.1.$.c y Q ! ! ! ! ! ! ! ! ! ! ",
"! ! ! ! ! ! ! ! ! ! E q S 6.e.6.2.6.0.&.M u W ! ! ! ! ! ! ! ! ! ",
"! ! ! ! ! ! ! ! ! ! 7 B r.2.5 o % o % :.w.l u ! ! ! ! ! ! ! ! ! ",
"! ! ! ! ! ! ! ! ! ! t = P 1.{ ' 9.F *.o.L - h ! ! ! ! ! ! ! ! ! ",
"! ! ! ! ! ! ! ! ! ! 8 U Y s 3.g.y.h.;.a T > p ! ! ! ! ! ! ! ! ! ",
"! ! ! ! ! ! ! ! ! ! 8 I =.>.*.e.p.0.*.,.R : p ! ! ! ! ! ! ! ! ! ",
"! ! ! ! ! ! ! ! ! ! 3 D u.h.j J h.g ` h.t.c i ! ! ! ! ! ! ! ! ! ",
"! ! ! ! ! ! ! ! ! ! 1  .u.0.V } h.S ] 9.f.F i ! ! ! ! ! ! ! ! ! ",
"! ! ! ! ! ! ! ! ! E , O.-.d ..h.a.h.^ f 4.~ 0 E ! ! ! ! ! ! ! ! ",
"! ! ! ! ! ! ! ! ! y @ | 5./ ..8.#.q.) _ i.G # n ! ! ! ! ! ! ! ! ",
"! ! ! ! ! ! ! ! ! E w A 6.h.y.Z $ ( s.h.&.v u W ! ! ! ! ! ! ! ! ",
"! ! ! ! ! ! ! ! ! y $ % Z @.q.a.d.a.0.X.N * & n ! ! ! ! ! ! ! ! ",
"! ! ! ! ! ! ! ! ! ! b & z j C [ ` [ m ; ` Z n ! ! ! ! ! ! ! ! ! ",
"! ! ! ! ! ! ! ! ! ! ! , c &.K A F x F { F 6 n ! ! ! ! ! ! ! ! ! ",
"! ! ! ! ! ! ! ! ! ! ! 1 X Z :.2.1.1.6. .. r ! ! ! ! ! ! ! ! ! ! ",
"! ! ! ! ! ! ! ! ! ! ! ! 2 X       +.h.M . r ! ! ! ! ! ! ! ! ! ! ",
"! ! ! ! ! ! ! ! ! ! ! ! ! 2 O X S f.+.+ p Q ! ! ! ! ! ! ! ! ! ! ",
"! ! ! ! ! ! ! ! ! ! ! ! ! ! ! e N <.5 p ! Q ! ! ! ! ! ! ! ! ! ! ",
"! ! ! ! ! ! ! ! ! ! ! ! ! ! ! ! e O p ! ! ! ! ! ! ! ! ! ! ! ! ! ",
"! ! ! ! ! ! ! ! ! ! ! ! ! ! ! ! ! ! ! ! ! ! ! ! ! ! ! ! ! ! ! ! ",
"! ! ! ! ! ! ! ! ! ! ! ! ! ! ! ! ! ! ! ! ! ! ! ! ! ! ! ! ! ! ! ! ",
"! ! ! ! ! ! ! ! ! ! ! ! ! ! ! ! ! ! ! ! ! ! ! ! ! ! ! ! ! ! ! ! "
};
