/* XPM */
static char *left[] = {
/* columns rows colors chars-per-pixel */
"32 32 145 2 ",
"   c black",
".  c #0C170C",
"X  c #141513",
"o  c #1E1717",
"O  c #1C1C1B",
"+  c #0F200F",
"@  c #112311",
"#  c #152C15",
"$  c #192918",
"%  c #1B351A",
"&  c #1D3D1D",
"*  c #21201D",
"=  c #213D1E",
"-  c #1F2221",
";  c #252926",
":  c #292C2A",
">  c #332D2C",
",  c #263825",
"<  c #2B3A2A",
"1  c #353533",
"2  c #393332",
"3  c #373D37",
"4  c #3B3D3B",
"5  c #214621",
"6  c #244B24",
"7  c #2C452A",
"8  c #295629",
"9  c #354C34",
"0  c #3D413D",
"q  c #384D3B",
"w  c #345534",
"e  c #375D35",
"r  c #375238",
"t  c #3E543F",
"y  c #3C5D3C",
"u  c #346533",
"i  c #356A35",
"p  c #386238",
"a  c #3B6C3A",
"s  c #367336",
"d  c #3D743E",
"f  c #3D7B3D",
"g  c #407D3F",
"h  c #000C55",
"j  c #3D4142",
"k  c #3A5A4B",
"l  c #414443",
"z  c #4C4646",
"x  c #454C46",
"c  c #454748",
"v  c #444B48",
"b  c #4A4C4B",
"n  c #415C41",
"m  c #495D4B",
"M  c #4D4F50",
"N  c #4E5352",
"B  c #535454",
"V  c #505D56",
"C  c #5D5758",
"Z  c #565A59",
"A  c #595B5C",
"S  c #476643",
"D  c #4D604D",
"F  c #447643",
"G  c #417E41",
"H  c #4F6B5B",
"J  c #526452",
"K  c #70635B",
"L  c #5E6463",
"P  c #626564",
"I  c #626967",
"U  c #666F6D",
"Y  c #6E7374",
"T  c #767B7C",
"R  c #797C7E",
"E  c #871A02",
"W  c #B42A0F",
"Q  c #C32416",
"!  c #946959",
"~  c #BF786B",
"^  c #D67E73",
"/  c #3D823D",
"(  c #428542",
")  c #448C44",
"_  c #4A8748",
"`  c #459145",
"'  c #489647",
"]  c #489848",
"[  c #79807F",
"{  c #7C8283",
"}  c #79838F",
"|  c #7183A2",
" . c #7AA3C9",
".. c #818785",
"X. c #828689",
"o. c #858B8C",
"O. c #8A8E8F",
"+. c #87908F",
"@. c #8C9395",
"#. c #8F9799",
"$. c #8B989B",
"%. c #919697",
"&. c #939A9C",
"*. c #A2948C",
"=. c #8C9BB1",
"-. c #9DA2A4",
";. c #97A5AC",
":. c #9FA8AB",
">. c #A2AAAD",
",. c #A6ADB1",
"<. c #A9B0B4",
"1. c #ADB6B9",
"2. c #B1BABD",
"3. c #CA999E",
"4. c #E3B0B4",
"5. c #8DACCA",
"6. c #A9B4C5",
"7. c #B6BEC2",
"8. c #ABC0C6",
"9. c #B7C1C5",
"0. c #B9C3C6",
"q. c #BAC3CC",
"w. c #C3CCCE",
"e. c #C5CFD4",
"r. c #C7D1D7",
"t. c #CCD6DA",
"y. c #D5DEDE",
"u. c #F0E4DE",
"i. c #D2DDE2",
"p. c #D6E1E7",
"a. c #DBE5EA",
"s. c #C5E4F7",
"d. c #DEECF2",
"f. c #D8F4FB",
"g. c #DEFFFF",
"h. c #E4EBEE",
"j. c #E5F1F6",
"k. c #EAF3F4",
"l. c #E7F3F8",
"z. c #EBF6FB",
"x. c #E5FEFF",
"c. c #EFFBFF",
"v. c #F2F6F4",
"b. c #F3FEFE",
"n. c #FDFFFF",
/* pixels */
"] ] ] ] ] ] ] ] ] ] ] ] ] ] ] ] ] ] ] ] ] ] ] ] ] ] ] ] ] ] ] ] ",
"] ] ] ] ] ] ] ] ] ] ] ] ] ] ] ] ] ] ] ] ] ] ] ] ] ] ] ] ] ] ] ] ",
"] ] ] ] ] ] ] ] ] ] ] ] ] ] ] ] ] ] ] ] ] ] ] ] ] ] ] ] ] ] ] ] ",
"] ] ] ] ] ] ] ] ] ] ] ] ] ] ] ] ] ] ] ] ] ] ] ] ] ] ] ] ] ] ] ] ",
"] ] ] ] ] ] ] ] ] ] ] ] ] ] ] ] ] ] ] ] ] ] ] ] ] ] ] ] ] ] ] ] ",
"] ] ] ] ] ] ] ] ] ] ] ] ] ] ] ] ] ] ] ] ] ] ] ] ] ] ] ] g ` ] ] ",
"] ] ] ] ] ] ] ] ] ] ] ] ] ] ] ] ] ] ] ] ] ] ] ] ] ] ] g l n ) ] ",
"] ] ] ] ] ] ] ] ] ] ] ] ] ] ] ] ] ] ] ] ] ] ] ] ] ] ' < &.H d ] ",
"] ] ] ] ] ] ] ] ] ) a ) ] ] ] ] ] ] ] ] ] ] ] ] ] ] ' = t.{ g ` ",
"] ] ] ] _ F ) ] ( H @.n ) ] ] ] ] ] ] ] ] ] ] ] ] ] g t 7.I d ' ",
"] ] ] ( D B 9 a k *.u.8.n ( ] ] ] ] ] ] ] ] ] ] ] ] = 1.@.r ( ] ",
"] ] ] w U T > O K W E k.$.u ] ] ] ] ] ] ] ] ] ] ] g q w.L G ] ] ",
"] ] ] p b P O.;.! ^ Q ~ | u ) ] ] ] ] ] ' ] ] ] G < e.#.9 ( ] ] ",
"] ] ] e 4 ,.7.t.b.g.4.3.2.A 7 i a a u u d a a a 0 #.9.m ) ' ] ] ",
"] ] ] u [ n.c P n.h.f.x.a.o.N L 1 Z ....j x N j T #.r ) ] ] ] ] ",
"] ] _ J 7.v.-.} =.q.j.a.c.1.1.k.b &.n.n.A X.t.:.&.3 ( ] ] ] ] ] ",
"] ] S [ d.b.n.| h 5.v.j.n.9.w.n.Z X.c.b.M #.n.r.X.4 d ' ' ] ] ] ",
"] ] y X.>.O.y.6. .s.k.2.O.<.i.n.l R b.n.4 { n.t.A 9 _ ] ] ] ] ' ",
"] ] d J I { i.b.v.h.n.>.1 >.c.l.#.2.l.l.@.2.a.1.v ) ' ] ] ] ] ] ",
"] ] ] f m -.w.c.n.j.2.O.Y 9.z.p.b.i.t.a.c.b.9.#.M w ) ] ] ] ] ] ",
"] ] ] ] / e x Y %.&.z 2 T 2.a.z.c.7.i.b.l.c.7.I Y 4 g ] ] ] ] ] ",
"] ] ] ] ] ] g 5 + X B O.>.:.0.0.e.@.[ 1.2.r.,.3 B U y ) ] ] ] ] ",
"] ] ] ] ] ] ] ' 8 X P Z 0 T :.X.N O   1 Y @.[ ; * %.A a ] ] ] ] ",
"] ] ] ] ] ] ] s , C 4 # # X L +.- % @ o I &.3 & . 4 t ) ] ] ] ] ",
"] ] ] ] ] ] ] # O 4 $ ` 5 B w.k.N / 8 Z 7.+.X f s 6 ` ] ] ] ] ] ",
"] ] ] ] ] ] ] i 6 6 / ] i V %.O.r / % 0 Y : @ f ] ] ] ] ] ] ] ] ",
"] ] ] ] ] ] ] ] ] ] ] ] ] s 6 6 ( ] i 6 6 6 ) ] ] ] ] ] ] ] ] ] ",
"] ] ] ] ] ] ] ] ] ] ] ] ] ] ] ] ] ] ] ] ] ] ] ] ] ] ] ] ] ] ] ] ",
"] ] ] ] ] ] ] ] ] ] ] ] ] ] ] ] ] ] ] ] ] ] ] ] ] ] ] ] ] ] ] ] ",
"] ] ] ] ] ] ] ] ] ] ] ] ] ] ] ] ] ] ] ] ] ] ] ] ] ] ] ] ] ] ] ] ",
"] ] ] ] ] ] ] ] ] ] ] ] ] ] ] ] ] ] ] ] ] ] ] ] ] ] ] ] ] ] ] ] ",
"] ] ] ] ] ] ] ] ] ] ] ] ] ] ] ] ] ] ] ] ] ] ] ] ] ] ] ] ] ] ] ] "
};
