/* XPM */
static char *right[] = {
/* columns rows colors chars-per-pixel */
"32 32 154 2 ",
"   c #020201",
".  c #0B0A0A",
"X  c #120D0D",
"o  c #141515",
"O  c #1B1C1B",
"+  c #211F1F",
"@  c #132513",
"#  c #1F2E1F",
"$  c #1A371A",
"%  c #213E1D",
"&  c #1E2020",
"*  c #212422",
"=  c #2A2C27",
"-  c #232828",
";  c #2E3D2D",
":  c #383030",
">  c #373936",
",  c #383B36",
"<  c #3B3D3C",
"1  c #403C3B",
"2  c #513C32",
"3  c #1E401E",
"4  c #244623",
"5  c #244A24",
"6  c #2D442B",
"7  c #2D4B2C",
"8  c #304F2F",
"9  c #265126",
"0  c #2E552E",
"q  c #2C5B2C",
"w  c #30522F",
"e  c #2F4131",
"r  c #334B35",
"t  c #394839",
"y  c #345434",
"u  c #325B31",
"i  c #3C583E",
"p  c #366536",
"a  c #346C34",
"s  c #3C623D",
"d  c #396A38",
"f  c #357135",
"g  c #3C723C",
"h  c #3E7A3E",
"j  c #40783F",
"k  c #00185B",
"l  c #3D4042",
"z  c #424443",
"x  c #444F46",
"c  c #46484A",
"v  c #4A4E4D",
"b  c #405341",
"n  c #465C48",
"m  c #4E5452",
"M  c #4C5C50",
"N  c #525454",
"B  c #585A57",
"V  c #545858",
"C  c #555B59",
"Z  c #5C5C5C",
"A  c #615F5E",
"S  c #446341",
"D  c #407740",
"F  c #407B40",
"G  c #4A7F48",
"H  c #416151",
"J  c #496452",
"K  c #566856",
"L  c #5B5E60",
"P  c #5F6462",
"I  c #626464",
"U  c #676668",
"Y  c #666A6A",
"T  c #6B6C6D",
"R  c #6C746E",
"E  c #6E7173",
"W  c #6F7778",
"Q  c #737877",
"!  c #747678",
"~  c #757B7B",
"^  c #787F7F",
"/  c #9E0300",
"(  c #B62E13",
")  c #B93B2C",
"_  c #D76764",
"`  c #3E823E",
"'  c #40803F",
"]  c #428542",
"[  c #438A43",
"{  c #498948",
"}  c #469346",
"|  c #489548",
" . c #489848",
".. c #596C8E",
"X. c #7E8586",
"o. c #70A2CC",
"O. c #828787",
"+. c #858C8D",
"@. c #978D88",
"#. c #868D90",
"$. c #8B8F91",
"%. c #8D9495",
"&. c #87929D",
"*. c #8F9598",
"=. c #94979A",
"-. c #949C9D",
";. c #ACA09D",
":. c #8D98AD",
">. c #969FA1",
",. c #9B9DA1",
"<. c #9BA2A4",
"1. c #9EA6A8",
"2. c #95B6BC",
"3. c #A3ABAE",
"4. c #A5AEB1",
"5. c #A7B0B4",
"6. c #ABB3B6",
"7. c #ACB5B9",
"8. c #B0B8B7",
"9. c #B2BBBE",
"0. c #CB9E8B",
"q. c #D0A59E",
"w. c #DAB1B6",
"e. c #A2B0C4",
"r. c #A0B9CE",
"t. c #B5BDC1",
"y. c #BCC6CA",
"u. c #B6C9CD",
"i. c #BDCDD2",
"p. c #C1CACF",
"a. c #C3CDD1",
"s. c #C6D0D6",
"d. c #C9D2D6",
"f. c #CCD7DD",
"g. c #D0DADF",
"h. c #D2DEE4",
"j. c #DFDBE0",
"k. c #D9E0E4",
"l. c #D9E4E9",
"z. c #DEEAEF",
"x. c #C9E8F6",
"c. c #D8EAF0",
"v. c #DFFFFF",
"b. c #E4EBEC",
"n. c #E2EDF2",
"m. c #EAEFF1",
"M. c #E4F0F5",
"N. c #EAF4F5",
"B. c #E7F3F9",
"V. c #ECF6FB",
"C. c #EFFAFE",
"Z. c #F1F4F1",
"A. c #F3FEFF",
"S. c #FCFFFF",
/* pixels */
" . . . . . . . . . . . . . . . . . . . . . . . . . . . . . . . .",
" . . . . . . . . . . . . . . . . . . . . . . . . . . . . . . . .",
" . . . . . . . . . . . . . . . . . . . . . . . . . . . . . . . .",
" . . . . . . . . . . . . . . . . . . . . . . . . . . . . . . . .",
" . . . . . . . . . . . . . . . . . . . . . . . . . . . . . . . .",
" . . .j h  . . . . . . . . . . . . . . . . . . . . . . . . . . .",
" . .h x x F  . . . . . . . . . . . . . . . . . . . . . . . . . .",
" . .0 *.+.u  . . . . . . . . . . . . . . . . . . . . . . . . . .",
" . .0 9.1.u  . . . . . . . . . . . . . . .g 6 [  . . . . . . . .",
" . .w ^ 4.n j  . . . . . . . . . . . . .a R i.J [  .d S |  . . .",
" . .] 7 9.%.q  . . . . . . . . . . . .d R x.0.@.H w , Y n ]  . .",
" . . .w ^ 7.b `  . . . . . . . . . . .% s.;./ ( 2 - : O.N D  . .",
" . . .] ; 9.y.6 '  . . . . .}  . . .g b 2.) _ q.;.a.,.A , j  . .",
" . . . .[ n 5.-.t 7 y y 7 5 6 y y 7 = Q u.w.j.v.S.%.y.4.< j  . .",
" . . . . .[ i X.~ m W < T 8.8.m v X.P 3.m.v.c.N.S.= #.S.I ]  . .",
" . . . . . .u V <.9.m.V +.S.S.L ^ A.4.p.M.l.N.:...&.d.V.6.K {  .",
" . . . . . .y < +.k.S.L ^ A.A.V O.S.7.f.S.n.Z.o.k e.S.S.f.I G  .",
" . . . . . .[ 7 E k.S.c E A.S.z ~ A.l.=.A 9.N.x.r.h.9.V 4.Y D  .",
" . . . . . . .p V 6.k.t.y.z.V.t.y.n.A.$.Z g.A.b.m.B.k.>.I s [  .",
" . . . . . .g > I >.s.C.n.z.y.h.B.k.A.4.I U 3.N.S.n.,.E s  . . .",
" . . . . . .u Z P Z a.A.m.A.p.d.C.V.d.5.X.< N ! V < S j |  . . .",
" . . . . .d M ~ < m 9.7.3.O.v +.4.7.9.1.-.%.v . 4 a |  . . . . .",
" . . . . .0 W ~ X & ~ +.E +   o V +.1.v * l B . h  . . . . . . .",
" . . . . .[ r O 5 3 m -.K X 9 $ l #.m   q @ z Z # f  . . . . . .",
" . . . . . .[ a } 3 O %.a.z h 5 #.A.b.l a ` o # . q  . . . . . .",
" . . . . . . . . .` @ # l o q ` e v m 0 [  .` f f [  . . . . . .",
" . . . . . . . . . .[ f f f ]  .' f f }  . . . . . . . . . . . .",
" . . . . . . . . . . . . . . . . . . . . . . . . . . . . . . . .",
" . . . . . . . . . . . . . . . . . . . . . . . . . . . . . . . .",
" . . . . . . . . . . . . . . . . . . . . . . . . . . . . . . . .",
" . . . . . . . . . . . . . . . . . . . . . . . . . . . . . . . .",
" . . . . . . . . . . . . . . . . . . . . . . . . . . . . . . . ."
};
