/* XPM */
static char *up[] = {
/* columns rows colors chars-per-pixel */
"32 32 112 2 ",
"   c black",
".  c #050905",
"X  c #0B0C0A",
"o  c #130F0F",
"O  c #131211",
"+  c #191614",
"@  c #151A15",
"#  c #1D1E1C",
"$  c #201C1C",
"%  c #1D3C1D",
"&  c #21321F",
"*  c #272323",
"=  c #2A2626",
"-  c #292C2B",
";  c #223421",
":  c #2B342B",
">  c #2D3F2C",
",  c #2E3132",
"<  c #333131",
"1  c #393536",
"2  c #3A3A38",
"3  c #1F421F",
"4  c #224422",
"5  c #244A24",
"6  c #2A4B2A",
"7  c #2D502D",
"8  c #2D5C2C",
"9  c #3C413C",
"0  c #335331",
"q  c #355A34",
"w  c #375D38",
"e  c #30612F",
"r  c #326432",
"t  c #366836",
"y  c #3E643E",
"u  c #3B6C3B",
"i  c #3C743C",
"p  c #3D783D",
"a  c #41403E",
"s  c #3F4342",
"d  c #3F4B40",
"f  c #434543",
"g  c #474B4B",
"h  c #4B4E4C",
"j  c #4E5351",
"k  c #515653",
"l  c #545957",
"z  c #565B5B",
"x  c #5A5D5C",
"c  c #417A41",
"v  c #59645F",
"b  c #5C6360",
"n  c #666263",
"m  c #626865",
"M  c #616568",
"N  c #646C6A",
"B  c #6D6D6E",
"V  c #6C6E70",
"C  c #6E7173",
"Z  c #6E7C74",
"A  c #717575",
"S  c #787778",
"D  c #757C7B",
"F  c #7A7B7D",
"G  c #469446",
"H  c #489648",
"J  c #489848",
"K  c #7D7F81",
"L  c #7D8384",
"P  c #838486",
"I  c #818688",
"U  c #858A8B",
"Y  c #878F90",
"T  c #8C8F92",
"R  c #8B9294",
"E  c #8E9699",
"W  c #929396",
"Q  c #949C9E",
"!  c #969DA0",
"~  c #989FA2",
"^  c #97A1A2",
"/  c #9CA3A5",
"(  c #9EA6A9",
")  c #A1A6A8",
"_  c #A2ABAD",
"`  c #A5AEB1",
"'  c #A8ADB0",
"]  c #A7B1B3",
"[  c #AAB2B5",
"{  c #ADB5BA",
"}  c #B0BABE",
"|  c #B3BDC2",
" . c #B6C2C4",
".. c #B9C2C7",
"X. c #BBC4C8",
"o. c #BFCACD",
"O. c #C0CBCE",
"+. c #C4CDD2",
"@. c #C7D2D6",
"#. c #C8D3D7",
"$. c #CDD6DC",
"%. c #D3DEE3",
"&. c #D6E1E6",
"*. c #DBE7EC",
"=. c #DEE9EE",
"-. c #E2EDF3",
";. c #E5F1F7",
":. c #EBF6F6",
">. c #EBF6FB",
",. c #EEFAFE",
"<. c #F7FFFF",
"1. c #F9FCFD",
/* pixels */
"J J J J J J J J J J J J J J J J J J J J J J J J J J J J J J J J ",
"J J J J J J J J J J J J J J J J J J J J J J J J J J J J J J J J ",
"J J J J J J J J J J J J J J J J J J J J J J J J J J J J J J J J ",
"J J J J J J J J J J J J J J J J J J J J J J J J J J J J J J J J ",
"J J J J J J J J J J J J J J J J J J J J J J J J J J J J J J J J ",
"J J J J J J J J J J J q u J J J J J J J 0 i J J J J J J J J J J ",
"J J J J J J J J J J q ~ H v J J J J J 8 ( Z p J J J J J J J J J ",
"J J J J J J J J J J 7 T @.l ; > > > & N $.N u J J J J J J J J J ",
"J J J J J J J J J J w a S E R R R R E E V 2 i J J J J J J J J J ",
"J J J J J J J J J J q k Y o.=.&.*.*.-.| U f i J J J J J J J J J ",
"J J J J J J J J J G q k X.;.=.,.` Q %.>.[ f i J J J J J J J J J ",
"J J J J J J J J J y : x ( %.,._  .S ' &.~ g : c J J J J J J J J ",
"J J J J J J J J J G 4 O m ` | L @.P K _ z . t J J J J J J J J J ",
"J J J J J J J J G u * j K Y $.! o.K / ] A s : c J J J J J J J J ",
"J J J J J J J J J G % z ` o.<.~ o.S ) ,.+., e G J J J J J J J J ",
"J J J J J J J J J r b +.<.L # l %.W + { %.L d c J J J J J J J J ",
"J J J J J J J J J 7 C ,.A I ..C #.K ) M ~ %.k i J J J J J J J J ",
"J J J J J J J J J q v ( %.C k Q *.R $ Q +.| z p J J J J J J J J ",
"J J J J J J J J J q z [ z T / } %.x ) V D _ g p J J J J J J J J ",
"J J J J J J J J J 4 g U ` :.^ o.W h O.-.} ! - r J J J J J J J J ",
"J J J J J J J J J 3 = C ^ ;.P U B V %.+.{ F O r J J J J J J J J ",
"J J J J J J J J J 4 * A L _ B I B F | _ { S o e J J J J J J J J ",
"J J J J J J J J H G 6 f C R B O h I ~ { ~ k e G J J J J J J J J ",
"J J J J J J J J H J G 6 * L v   f _ { ( - t J J J J J J J J J J ",
"J J J J J J J J J J J G % 1 h . + [ 1.R X r J J J J J J J J J J ",
"J J J J J J J J J J J J 3 # 9 t 5 B $.s 8 G J J J J J J J J J J ",
"J J J J J J J J J J J J G 3 . i 5 < n # r J J J J J J J J J J J ",
"J J J J J J J J J J J J G G G G y @ . 8 G J J J J J J J J J J J ",
"J J J J J J J J J J J J J J J J H G G J J J J J J J J J J J J J ",
"J J J J J J J J J J J J J J J J J J J H J J J J J J J J J J J J ",
"J J J J J J J J J J J J J J J J J J J J J J J J J J J J J J J J ",
"J J J J J J J J J J J J J J J J J G G J J J J J J J J J J J J J "
};
